# xmcd
# Copyright (c) 1998 CDDB Inc.
#
# Track frame offsets:
#	150
#	14825
#	27187
#	39325
#	52600
#	67312
#	81700
#	93705
#	102517
#	113372
#	126675
#	144507
#	161057
#	178150
#	193215
#	202532
#
# Disc length: 2848 seconds
#
# Revision: 1
# Processed by: cddbd v1.4PL0 Copyright (c) Steve Scherf et al.
# Submitted via: audiograbber 1.60
#
DISCID=e90b1e10
DTITLE=Various Artist - Wildwest - Romantic Western
DYEAR=1900
DGENRE=
TTITLE0=John Denver - Take me home, Country Roads
TTITLE1=Johnny Russel - Goodhearted Woman
TTITLE2=Billie Jo Spears - You never can tell
TTITLE3=Lynn Anderson - Rose Garden
TTITLE4=Moe Bandy - Till I'm too old to die young
TTITLE5=Kitty Wells - Careless Love
TTITLE6=Stonewall Jackson - I love you because
TTITLE7=Roger Miller - Atta Boy Girl
TTITLE8=Johnny Cash - Cry Cry Cry
TTITLE9=Moe Bandy - Bandy the Rodeo Clown
TTITLE10=Lynn Anderson - Go tell it on the Mountain
TTITLE11=Donna Fargo - House of the Rising Sun
TTITLE12=John Denver - A Country Girl in Paris
TTITLE13=Lynn Anderson - Desperado
TTITLE14=Roger Miller - Chug-A-Lug
TTITLE15=Johnny Cash - Mean Eyed Cat
EXTD=
EXTT0=
EXTT1=
EXTT2=
EXTT3=
EXTT4=
EXTT5=
EXTT6=
EXTT7=
EXTT8=
EXTT9=
EXTT10=
EXTT11=
EXTT12=
EXTT13=
EXTT14=
EXTT15=
PLAYORDER=
